<svg xmlns="http://www.w3.org/2000/svg" viewBox="0 0 600 400" width="600" height="400" role="img" aria-label="HP Sprocket Ad image editing">
  <defs>
    <linearGradient id="bg" x1="0" y1="0" x2="1" y2="1">
      <stop offset="0" stop-color="#be185d"/>
      <stop offset="1" stop-color="#f472b6"/>
    </linearGradient>
    <radialGradient id="glow" cx="0.2" cy="0.1" r="0.95">
      <stop offset="0" stop-color="#ffffff" stop-opacity="0.4"/>
      <stop offset="1" stop-color="#ffffff" stop-opacity="0"/>
    </radialGradient>
  </defs>
  <rect width="600" height="400" fill="url(#bg)"/>
  <rect width="600" height="400" fill="url(#glow)"/>
  <circle cx="536" cy="66" r="128" fill="#ffffff" opacity="0.07"/>
  <circle cx="64" cy="360" r="146" fill="#3b0620" opacity="0.12"/>
  <g transform="translate(300,150)">
    <rect x="-58" y="-78" width="116" height="164" rx="18" fill="#ffffff" opacity="0.96"/>
    <rect x="-44" y="-62" width="88" height="118" rx="8" fill="#be185d" opacity="0.85"/>
    <circle cx="14" cy="-40" r="12" fill="#fde68a"/>
    <path d="M-44,38 L-14,-2 L4,22 L20,6 L44,40 L44,56 L-44,56 Z" fill="#ffffff" opacity="0.92"/>
    <circle cx="0" cy="72" r="7" fill="#be185d" opacity="0.7"/>
  </g>
  <g fill="#ffffff" opacity="0.85">
    <path d="M418,96 l5,-13 5,13 13,5 -13,5 -5,13 -5,-13 -13,-5 z"/>
    <rect x="164" y="58" width="16" height="16" rx="4"/>
  </g>
  <text x="300" y="322" text-anchor="middle" font-family="Helvetica,Arial,sans-serif" font-size="34" font-weight="700" fill="#ffffff">HP Sprocket Ad</text>
  <text x="300" y="356" text-anchor="middle" font-family="Helvetica,Arial,sans-serif" font-size="17" letter-spacing="2" fill="#ffffff" opacity="0.88">IMAGE EDITING &#183; CREATIVE</text>
</svg>
