<svg xmlns="http://www.w3.org/2000/svg" viewBox="0 0 600 400" width="600" height="400" role="img" aria-label="John Deere dealer locator map">
  <defs>
    <linearGradient id="bg" x1="0" y1="0" x2="1" y2="1">
      <stop offset="0" stop-color="#3f6212"/>
      <stop offset="1" stop-color="#a3e635"/>
    </linearGradient>
    <radialGradient id="glow" cx="0.22" cy="0.12" r="0.95">
      <stop offset="0" stop-color="#ffffff" stop-opacity="0.38"/>
      <stop offset="1" stop-color="#ffffff" stop-opacity="0"/>
    </radialGradient>
  </defs>
  <rect width="600" height="400" fill="url(#bg)"/>
  <rect width="600" height="400" fill="url(#glow)"/>
  <circle cx="530" cy="58" r="126" fill="#ffffff" opacity="0.08"/>
  <circle cx="66" cy="364" r="146" fill="#1a2b07" opacity="0.14"/>
  <g stroke="#ffffff" stroke-width="3" opacity="0.45" fill="none">
    <path d="M120,70 L120,180 L236,180"/>
    <path d="M120,128 L60,128"/>
    <path d="M236,180 L236,96 L360,96"/>
    <path d="M236,180 L300,236"/>
  </g>
  <g fill="#ffffff" opacity="0.85">
    <circle cx="120" cy="70" r="9"/>
    <circle cx="360" cy="96" r="9"/>
    <circle cx="60" cy="128" r="9"/>
    <circle cx="300" cy="236" r="9"/>
    <circle cx="236" cy="180" r="12"/>
  </g>
  <g transform="translate(376,132)">
    <path d="M0,-96 C-46,-96 -84,-60 -84,-18 C-84,42 -8,110 0,116 C8,110 84,42 84,-18 C84,-60 46,-96 0,-96 Z" fill="#ffffff" opacity="0.96"/>
    <circle cx="0" cy="-24" r="34" fill="#3f6212"/>
    <circle cx="0" cy="-24" r="14" fill="#ffffff"/>
  </g>
  <text x="300" y="322" text-anchor="middle" font-family="Helvetica,Arial,sans-serif" font-size="34" font-weight="700" fill="#ffffff">Dealer Locator</text>
  <text x="300" y="356" text-anchor="middle" font-family="Helvetica,Arial,sans-serif" font-size="17" letter-spacing="2" fill="#ffffff" opacity="0.9">JOHN DEERE &#183; GEO SEARCH</text>
</svg>
